<?xml version="1.0" encoding="UTF-8"?>
<svg version="1.1" xmlns="http://www.w3.org/2000/svg" width="512" height="512">
<path d="M0 0 C0.72711182 0.00182281 1.45422363 0.00364563 2.20336914 0.00552368 C13.01260608 0.05113165 23.24357929 0.56828563 33.75 3.3125 C34.39614258 3.46283691 35.04228516 3.61317383 35.70800781 3.76806641 C71.37734373 12.0771062 102.23978491 35.89161263 121.8125 66.4375 C124.95248047 71.70681946 127.7612465 77.10636549 130.4375 82.625 C130.82881104 83.43122803 131.22012207 84.23745605 131.62329102 85.06811523 C133.76611913 89.66028366 135.23082934 93.99124287 136.2878418 98.93774414 C137.58070368 104.9356248 137.58070368 104.9356248 141.37402344 109.61083984 C145.54060603 112.02712054 150.02807141 113.64365559 154.51318359 115.36425781 C166.28170539 120.35322732 176.40400876 129.81760972 185.75 138.3125 C186.76126953 139.21548828 186.76126953 139.21548828 187.79296875 140.13671875 C191.62431584 143.74965176 194.90033791 147.83477622 198.1875 151.9375 C198.66904541 152.53578613 199.15059082 153.13407227 199.64672852 153.75048828 C201.97961153 156.73375321 203.99984439 159.61724571 205.63671875 163.0390625 C207.41771296 166.64907773 208.92767745 169.43203134 211.75 172.3125 C216.00982399 173.53847645 219.88670721 173.83197433 224.2890625 174.015625 C239.90584348 174.70549579 252.95256587 183.73430311 263.75 194.3125 C264.37777344 194.90417969 265.00554687 195.49585938 265.65234375 196.10546875 C272.4384264 203.07620671 276.92219287 212.92969184 280.02734375 222.07421875 C282.23547729 226.22510923 284.90214851 227.353828 289.0625 229.0625 C311.88009544 239.49369673 327.64946988 259.1966134 336.75 282.3125 C345.08712055 307.67013182 344.42370847 335.14105658 332.75 359.3125 C332.33234375 360.199375 331.9146875 361.08625 331.484375 362 C320.15075633 384.40669437 300.2405434 400.92849757 276.75 409.3125 C266.68361458 412.52727335 256.81175565 414.38744315 246.23242188 414.51782227 C245.52899658 414.52772186 244.82557129 414.53762146 244.10083008 414.54782104 C241.80683603 414.57906946 239.51282138 414.60404618 237.21875 414.62890625 C235.61592105 414.64950757 234.01309715 414.67050481 232.41027832 414.69187927 C228.21496699 414.7467721 224.01960932 414.79632436 219.82421875 414.84472656 C215.53381279 414.89518278 211.24347316 414.95074226 206.953125 415.00585938 C198.55213961 415.11303918 190.1510983 415.21457138 181.75 415.3125 C182.02424805 415.98289307 182.29849609 416.65328613 182.58105469 417.34399414 C182.94102539 418.23207764 183.30099609 419.12016113 183.671875 420.03515625 C184.20699707 421.35012085 184.20699707 421.35012085 184.75292969 422.69165039 C190.87226444 438.77663045 189.00064755 458.29582815 182.20703125 473.84375 C174.88017158 488.1956765 165.11817364 498.30652565 150.8125 505.625 C150.18085938 505.95064941 149.54921875 506.27629883 148.8984375 506.61181641 C139.59323654 511.14880967 130.37048725 512.87795819 120.0625 512.8125 C118.49592651 512.80500732 118.49592651 512.80500732 116.89770508 512.79736328 C107.76744021 512.59351566 100.10319713 510.91847259 91.75 507.3125 C90.76128906 506.8896875 89.77257812 506.466875 88.75390625 506.03125 C72.66823835 498.18235673 60.76930264 482.88902191 54.75 466.3125 C49.84218268 448.75547805 50.39002524 430.74417453 58.75 414.3125 C53.8 414.3125 48.85 414.3125 43.75 414.3125 C43.399375 415.776875 43.04875 417.24125 42.6875 418.75 C40.148366 427.17801755 34.12228918 434.49554611 26.75 439.3125 C16.45673824 444.28385862 5.92010805 446.13627701 -5.375 443.3125 C-15.55551075 439.75345966 -23.04645114 432.61213689 -28.25 423.3125 C-29.84742748 419.86985926 -30.25 418.21731945 -30.25 414.3125 C-30.86370956 414.31916183 -31.47741913 414.32582367 -32.10972595 414.33268738 C-38.58408283 414.3998324 -45.0583385 414.44462342 -51.53295898 414.47729492 C-53.93892443 414.4922428 -56.3448633 414.51260848 -58.75073242 414.53881836 C-90.67824295 414.87755417 -117.80983701 409.38306588 -141.66308594 386.86816406 C-159.71640635 369.17035519 -170.11067886 345.17307513 -170.72460938 319.98828125 C-170.89668003 295.07774512 -164.59708818 272.65936312 -148.25 253.3125 C-147.59386719 252.51070312 -146.93773437 251.70890625 -146.26171875 250.8828125 C-138.4487242 241.71289934 -128.39106443 233.15644106 -117.25 228.3125 C-116.59 228.3125 -115.93 228.3125 -115.25 228.3125 C-115.89066406 227.31992188 -116.53132813 226.32734375 -117.19140625 225.3046875 C-139.04082199 191.14060882 -148.36240918 152.98364037 -140.03540039 112.83349609 C-131.85300036 76.0073712 -110.11378376 43.45660274 -78.4597168 22.68457031 C-54.36499538 7.4721294 -28.46220776 -0.14835922 0 0 Z " fill="#E4F9FE" transform="translate(170.25,-0.3125)"/>
<path d="M0 0 C0.72711182 0.00182281 1.45422363 0.00364563 2.20336914 0.00552368 C13.01260608 0.05113165 23.24357929 0.56828563 33.75 3.3125 C34.39614258 3.46283691 35.04228516 3.61317383 35.70800781 3.76806641 C71.37734373 12.0771062 102.23978491 35.89161263 121.8125 66.4375 C124.95248047 71.70681946 127.7612465 77.10636549 130.4375 82.625 C130.82881104 83.43122803 131.22012207 84.23745605 131.62329102 85.06811523 C133.76611913 89.66028366 135.23082934 93.99124287 136.2878418 98.93774414 C137.58070368 104.9356248 137.58070368 104.9356248 141.37402344 109.61083984 C145.54060603 112.02712054 150.02807141 113.64365559 154.51318359 115.36425781 C166.28170539 120.35322732 176.40400876 129.81760972 185.75 138.3125 C186.76126953 139.21548828 186.76126953 139.21548828 187.79296875 140.13671875 C191.62431584 143.74965176 194.90033791 147.83477622 198.1875 151.9375 C198.66904541 152.53578613 199.15059082 153.13407227 199.64672852 153.75048828 C201.97961153 156.73375321 203.99984439 159.61724571 205.63671875 163.0390625 C207.41771296 166.64907773 208.92767745 169.43203134 211.75 172.3125 C216.00982399 173.53847645 219.88670721 173.83197433 224.2890625 174.015625 C239.90584348 174.70549579 252.95256587 183.73430311 263.75 194.3125 C264.37777344 194.90417969 265.00554687 195.49585938 265.65234375 196.10546875 C272.4384264 203.07620671 276.92219287 212.92969184 280.02734375 222.07421875 C282.23547729 226.22510923 284.90214851 227.353828 289.0625 229.0625 C311.88009544 239.49369673 327.64946988 259.1966134 336.75 282.3125 C345.08712055 307.67013182 344.42370847 335.14105658 332.75 359.3125 C332.33234375 360.199375 331.9146875 361.08625 331.484375 362 C320.15075633 384.40669437 300.2405434 400.92849757 276.75 409.3125 C266.68361458 412.52727335 256.81175565 414.38744315 246.23242188 414.51782227 C245.52899658 414.52772186 244.82557129 414.53762146 244.10083008 414.54782104 C241.80683603 414.57906946 239.51282138 414.60404618 237.21875 414.62890625 C235.61592105 414.64950757 234.01309715 414.67050481 232.41027832 414.69187927 C228.21496699 414.7467721 224.01960932 414.79632436 219.82421875 414.84472656 C215.53381279 414.89518278 211.24347316 414.95074226 206.953125 415.00585938 C198.55213961 415.11303918 190.1510983 415.21457138 181.75 415.3125 C182.02424805 415.98289307 182.29849609 416.65328613 182.58105469 417.34399414 C182.94102539 418.23207764 183.30099609 419.12016113 183.671875 420.03515625 C184.20699707 421.35012085 184.20699707 421.35012085 184.75292969 422.69165039 C190.87226444 438.77663045 189.00064755 458.29582815 182.20703125 473.84375 C174.88017158 488.1956765 165.11817364 498.30652565 150.8125 505.625 C150.18085938 505.95064941 149.54921875 506.27629883 148.8984375 506.61181641 C139.59323654 511.14880967 130.37048725 512.87795819 120.0625 512.8125 C118.49592651 512.80500732 118.49592651 512.80500732 116.89770508 512.79736328 C107.76744021 512.59351566 100.10319713 510.91847259 91.75 507.3125 C90.76128906 506.8896875 89.77257812 506.466875 88.75390625 506.03125 C72.66823835 498.18235673 60.76930264 482.88902191 54.75 466.3125 C49.84218268 448.75547805 50.39002524 430.74417453 58.75 414.3125 C53.8 414.3125 48.85 414.3125 43.75 414.3125 C43.399375 415.776875 43.04875 417.24125 42.6875 418.75 C40.148366 427.17801755 34.12228918 434.49554611 26.75 439.3125 C16.45673824 444.28385862 5.92010805 446.13627701 -5.375 443.3125 C-15.55551075 439.75345966 -23.04645114 432.61213689 -28.25 423.3125 C-29.84742748 419.86985926 -30.25 418.21731945 -30.25 414.3125 C-30.86370956 414.31916183 -31.47741913 414.32582367 -32.10972595 414.33268738 C-38.58408283 414.3998324 -45.0583385 414.44462342 -51.53295898 414.47729492 C-53.93892443 414.4922428 -56.3448633 414.51260848 -58.75073242 414.53881836 C-90.67824295 414.87755417 -117.80983701 409.38306588 -141.66308594 386.86816406 C-159.71640635 369.17035519 -170.11067886 345.17307513 -170.72460938 319.98828125 C-170.89668003 295.07774512 -164.59708818 272.65936312 -148.25 253.3125 C-147.59386719 252.51070312 -146.93773437 251.70890625 -146.26171875 250.8828125 C-138.4487242 241.71289934 -128.39106443 233.15644106 -117.25 228.3125 C-116.59 228.3125 -115.93 228.3125 -115.25 228.3125 C-115.89066406 227.31992188 -116.53132813 226.32734375 -117.19140625 225.3046875 C-139.04082199 191.14060882 -148.36240918 152.98364037 -140.03540039 112.83349609 C-131.85300036 76.0073712 -110.11378376 43.45660274 -78.4597168 22.68457031 C-54.36499538 7.4721294 -28.46220776 -0.14835922 0 0 Z M-95 57.1875 C-119.49882022 85.73157996 -129.67811108 119.61541526 -127.05957031 157.03369141 C-125.52814459 172.94489215 -120.10279011 187.95277971 -113.125 202.25 C-112.81280518 202.89412842 -112.50061035 203.53825684 -112.17895508 204.2019043 C-110.04378264 208.36262473 -107.6595209 211.20381918 -104.25 214.3125 C-103.89808594 213.62285156 -103.54617187 212.93320313 -103.18359375 212.22265625 C-94.62208183 195.92672364 -82.28222913 183.58225355 -64.375 178 C-62.33865282 177.41853701 -60.29746923 176.85349797 -58.25 176.3125 C-57.61320312 176.10625 -56.97640625 175.9 -56.3203125 175.6875 C-54.25 175.3125 -54.25 175.3125 -50.859375 175.48828125 C-46.48080685 175.64339247 -43.46787732 175.53862713 -39.25 174.3125 C-36.01512829 170.61771841 -34.21876186 166.62493973 -32.18896484 162.19140625 C-30.66769634 159.14728706 -28.77870851 156.62769788 -26.6875 153.9375 C-26.00558594 153.04289063 -25.32367188 152.14828125 -24.62109375 151.2265625 C-22.25 149.3125 -22.25 149.3125 -18.59375 148.953125 C-15.25 149.3125 -15.25 149.3125 -13.3125 150.4375 C-11.70081345 153.28165274 -11.87918458 155.05840553 -12.25 158.3125 C-13.66181012 161.05841277 -15.46794749 163.46792889 -17.3125 165.9375 C-18.32777313 167.3464038 -19.33947342 168.75788885 -20.34765625 170.171875 C-20.84410645 170.86732422 -21.34055664 171.56277344 -21.85205078 172.27929688 C-24.44515635 176.05075744 -26.62325046 180.03741459 -28.8125 184.0546875 C-30.25 186.3125 -30.25 186.3125 -33.25 188.3125 C-35.34375 188.56787109 -35.34375 188.56787109 -37.75 188.5859375 C-38.63187988 188.60350098 -39.51375977 188.62106445 -40.42236328 188.63916016 C-41.3554834 188.6551123 -42.28860352 188.67106445 -43.25 188.6875 C-59.33676225 189.23996367 -71.96271724 194.89904414 -83.18359375 206.7421875 C-89.3909117 214.46319924 -92.86377556 223.06542994 -95.1328125 232.6328125 C-96.5830418 236.11133453 -97.87396895 236.70267593 -101.25 238.3125 C-101.83088379 238.59689941 -102.41176758 238.88129883 -103.01025391 239.17431641 C-104.31112062 239.81062796 -105.6151419 240.44052165 -106.921875 241.06469727 C-114.04332377 244.48403011 -120.26869264 248.09244994 -126.25 253.3125 C-126.89839844 253.8075 -127.54679687 254.3025 -128.21484375 254.8125 C-140.41953233 264.47958006 -149.33304522 280.44882391 -153.25 295.3125 C-153.45496094 296.08207031 -153.65992188 296.85164063 -153.87109375 297.64453125 C-158.73477751 319.48079419 -154.01558538 341.37608932 -143.06640625 360.55859375 C-130.3005651 379.91325613 -111.1542748 393.00733474 -88.4921875 397.90625 C-77.02829264 400.15146441 -65.37599272 399.63439965 -53.75 399.5 C-51.46224845 399.48491699 -49.17448722 399.47123503 -46.88671875 399.45898438 C-41.34093072 399.42628636 -35.79551208 399.37637749 -30.25 399.3125 C-29.80321899 398.16865845 -29.80321899 398.16865845 -29.34741211 397.00170898 C-26.68118975 390.36436296 -23.73860128 384.3453082 -19.8125 378.375 C-19.30605957 377.58939697 -18.79961914 376.80379395 -18.27783203 375.99438477 C-16.61452202 373.42525944 -14.93433716 370.86788412 -13.25 368.3125 C-12.62689941 367.36342773 -12.00379883 366.41435547 -11.36181641 365.43652344 C-8.28572181 360.75837706 -5.19748279 356.08824506 -2.0859375 351.43359375 C-1.58626465 350.6852124 -1.0865918 349.93683105 -0.57177734 349.16577148 C0.75 347.3125 0.75 347.3125 2.75 345.3125 C6.125 344.9375 6.125 344.9375 9.75 345.3125 C12.73490234 347.85465019 14.78740655 350.67668594 16.8515625 353.98828125 C17.41955566 354.8915918 17.98754883 355.79490234 18.57275391 356.72558594 C19.46486572 358.1607959 19.46486572 358.1607959 20.375 359.625 C24.19451327 365.71905488 28.02515557 371.78460808 32.10131836 377.71069336 C36.17861441 383.63867698 39.55632598 389.41415402 41.75 396.3125 C42.08 397.3025 42.41 398.2925 42.75 399.3125 C57.63403628 401.49370476 57.63403628 401.49370476 71.73632812 398.16113281 C75.01476002 394.74219669 76.62614969 390.33176852 78.45556641 386.02636719 C80.79034728 381.13134187 83.91072066 376.72605095 86.93728638 372.23742676 C88.80796296 369.45284772 90.64031183 366.6432835 92.4765625 363.8359375 C93.55405762 362.19383301 93.55405762 362.19383301 94.65332031 360.51855469 C96.62019286 357.51098944 98.57508315 354.49614844 100.5234375 351.4765625 C101.10311279 350.57905273 101.68278809 349.68154297 102.2800293 348.75683594 C103.34372217 347.10794747 104.40527359 345.45767446 105.46411133 343.80566406 C113.13771775 331.92478225 113.13771775 331.92478225 116.75 328.3125 C119.5 327.9375 119.5 327.9375 122.75 328.3125 C126.66964487 331.69907317 129.32250386 335.52382927 131.9375 339.9375 C136.66206323 347.70727933 141.68180046 355.2651627 146.75 362.8125 C152.19008993 370.92033438 157.59014433 379.03999007 162.66992188 387.38085938 C163.6804952 389.03469782 164.71496501 390.67385952 165.75 392.3125 C166.08650353 392.91227346 166.42300707 393.51204693 166.76970768 394.12999535 C169.0230658 397.81039477 169.98634767 399.12874253 174.33213806 400.17446899 C175.73147076 400.20370041 177.13193634 400.19467188 178.53100586 400.15478516 C179.68342773 400.16354675 179.68342773 400.16354675 180.85913086 400.17248535 C183.39566839 400.18288884 185.92866554 400.14304576 188.46484375 400.1015625 C190.24019265 400.09611358 192.01555157 400.09333867 193.79090881 400.09310913 C197.51613418 400.08537902 201.24018124 400.0544232 204.96508789 400.00537109 C209.70230183 399.94351543 214.43837655 399.92454286 219.17595577 399.92157936 C222.84730355 399.91683625 226.51841674 399.89593318 230.18966866 399.86970139 C231.9336718 399.85776471 233.67769997 399.84899382 235.42173576 399.843647 C260.50114113 399.7271634 283.97881425 393.13172152 302.6015625 375.58203125 C311.25246596 366.44353142 316.94599144 356.87969379 321.75 345.3125 C322.08773438 344.55195313 322.42546875 343.79140625 322.7734375 343.0078125 C330.68100847 324.13925205 327.68340841 300.75422709 320.1796875 282.39453125 C310.0725597 260.60621475 292.88669213 247.40885609 271.43359375 237.83203125 C267.5085769 235.60956902 267.02952487 232.3860894 265.75 228.3125 C259.44925109 211.51050291 250.58026561 199.901348 234.18359375 192.08984375 C226.54843177 189.05967278 219.08175414 188.82135124 210.9597168 188.90307617 C204.34869346 188.84271545 204.34869346 188.84271545 201.359375 186.1953125 C200.82828125 185.24398437 200.2971875 184.29265625 199.75 183.3125 C199.13640625 182.25675781 198.5228125 181.20101562 197.890625 180.11328125 C196.95476562 178.38658203 196.95476562 178.38658203 196 176.625 C192.48402899 170.31686163 188.50267426 164.76860612 183.75 159.3125 C183.03972656 158.48105469 182.32945312 157.64960938 181.59765625 156.79296875 C163.31499049 135.87554272 140.43075155 123.33405233 113.75 116.3125 C113.01217285 116.11527344 112.2743457 115.91804688 111.51416016 115.71484375 C104.42158629 114.04982329 97.34165954 114.0076607 90.09277344 114.05175781 C88.017276 114.06241132 85.94265762 114.0518437 83.8671875 114.0390625 C55.874382 114.00727256 31.14162283 122.74839994 8.75 139.3125 C1.9557587 144.12228469 1.9557587 144.12228469 -3.25 143.3125 C-5.125 142.25 -5.125 142.25 -6.25 140.3125 C-6.86109307 134.12967598 -6.86109307 134.12967598 -4.58203125 131.08203125 C22.11701094 110.34370546 52.23976641 100.11956451 85.875 100.0625 C86.55954254 100.05983124 87.24408508 100.05716248 87.94937134 100.05441284 C97.20363178 100.03721086 105.95235893 100.50218939 114.94921875 102.75390625 C117.77987193 103.31845772 119.05579958 103.10219808 121.75 102.3125 C115.42247109 86.14023265 108.06694909 72.58899864 96.75 59.3125 C96.08742188 58.50425781 95.42484375 57.69601563 94.7421875 56.86328125 C75.63285302 34.40452468 45.0788057 18.9203426 15.828125 15.55859375 C-26.73707264 12.51663067 -65.54186817 25.59923871 -95 57.1875 Z " fill="#010101" transform="translate(170.25,-0.3125)"/>
<path d="M0 0 C1.70337524 0.00737183 1.70337524 0.00737183 3.44116211 0.01489258 C12.68733238 0.14279236 21.35041037 1.07697256 30.3125 3.3125 C30.99006348 3.47347168 31.66762695 3.63444336 32.36572266 3.80029297 C65.35151592 11.81761979 93.59069036 32.88411836 111.2421875 61.7578125 C116.24131396 70.20171518 120.5450446 78.87059334 123.3125 88.3125 C119.77177487 87.90395479 116.26339759 87.49508836 112.76196289 86.82275391 C104.47237347 85.23666704 96.42356091 85.01277903 88 85.0625 C86.70126953 85.05476563 85.40253906 85.04703125 84.06445312 85.0390625 C71.55587214 85.06394282 59.33636613 86.21080829 47.375 90 C46.53291992 90.26200195 45.69083984 90.52400391 44.82324219 90.79394531 C30.44763894 95.39392112 17.77753398 101.82073819 5.3125 110.3125 C3.71535156 111.38757813 3.71535156 111.38757813 2.0859375 112.484375 C-3.28409696 116.20081154 -3.28409696 116.20081154 -5.3125 122.125 C-5.003125 123.7028125 -5.003125 123.7028125 -4.6875 125.3125 C-4.6875 128.3125 -4.6875 128.3125 -6.21875 130.13671875 C-6.8684375 130.75160156 -7.518125 131.36648437 -8.1875 132 C-9.16203125 132.93392578 -9.16203125 132.93392578 -10.15625 133.88671875 C-10.6615625 134.35722656 -11.166875 134.82773438 -11.6875 135.3125 C-12.3475 134.9825 -13.0075 134.6525 -13.6875 134.3125 C-18.77840555 133.75770477 -18.77840555 133.75770477 -23.05859375 136.2265625 C-23.74050781 137.12117187 -24.42242187 138.01578125 -25.125 138.9375 C-25.89457031 139.9275 -26.66414063 140.9175 -27.45703125 141.9375 C-29.07528928 144.24673836 -30.33852587 146.56248274 -31.51171875 149.125 C-33.28148316 152.93534686 -34.91479748 156.11357298 -37.6875 159.3125 C-42.71809376 160.79174782 -47.48659622 160.44052225 -52.6875 160.3125 C-67.59433489 162.48603607 -80.55151088 170.35467392 -90.6875 181.3125 C-91.15671875 181.79976562 -91.6259375 182.28703125 -92.109375 182.7890625 C-96.65841443 187.73672909 -99.64706306 193.35022473 -102.6875 199.3125 C-106.64458061 195.70457357 -109.21876473 192.0856551 -111.5625 187.25 C-111.89983154 186.5588208 -112.23716309 185.8676416 -112.5847168 185.15551758 C-127.88913822 152.8756051 -130.54926325 117.40232928 -118.5 83.5625 C-113.11030984 69.32897786 -105.39086711 56.97505251 -95.6875 45.3125 C-94.96949219 44.44109375 -94.25148438 43.5696875 -93.51171875 42.671875 C-70.56434624 15.99083493 -35.11493722 -0.18191536 0 0 Z " fill="#FECE65" transform="translate(168.6875,14.6875)"/>
<path d="M0 0 C4.33869481 1.4462316 5.69189644 4.77912879 8 8.5 C8.99198069 10.06653723 9.98417388 11.63293991 10.9765625 13.19921875 C11.4809082 14.00149902 11.98525391 14.8037793 12.50488281 15.63037109 C14.7641488 19.21110847 17.06960768 22.76136026 19.375 26.3125 C20.2878247 27.72391676 21.20058382 29.13537594 22.11328125 30.546875 C24.14609753 33.68639216 26.18631281 36.82097997 28.23046875 39.953125 C31.49844277 44.96136356 34.75558973 49.97646275 38 55 C38.48984375 55.75829102 38.9796875 56.51658203 39.484375 57.29785156 C50.26771861 74.05795224 56.26990071 88.74201031 52.61767578 109.13476562 C50.54707157 116.97037878 46.07111753 123.78413654 41 130 C40.45085937 130.69738281 39.90171875 131.39476562 39.3359375 132.11328125 C31.1474722 141.40195885 17.60130095 147.2893775 5.359375 148.30078125 C-12.01913428 148.35720498 -24.88605442 143.70981779 -37.5546875 131.63671875 C-48.34831635 119.99822119 -51.63239249 105.32708823 -51.32421875 89.953125 C-50.71263883 76.84284846 -43.71129221 66.79049359 -36.55761719 56.30224609 C-33.85241681 52.3038073 -31.24605075 48.24137079 -28.625 44.1875 C-27.52917326 42.50095927 -26.43281513 40.8147637 -25.3359375 39.12890625 C-24.78776367 38.28602051 -24.23958984 37.44313477 -23.67480469 36.57470703 C-21.98400152 33.97540525 -20.29279645 31.37636526 -18.6015625 28.77734375 C-12.37273299 19.20291807 -6.1621876 9.61747108 0 0 Z " fill="#23BFFE" transform="translate(289,349)"/>
<path d="M0 0 C4.03840192 0.64614431 5.62593457 2.45917319 8.125 5.5 C10.57695271 8.94592681 12.85212479 12.49667534 15.125 16.0625 C16.46481388 18.14194633 17.80465817 20.22137307 19.14453125 22.30078125 C19.81307129 23.34314941 20.48161133 24.38551758 21.17041016 25.45947266 C23.50001816 29.08337199 25.85379795 32.69100965 28.21118164 36.296875 C30.33057781 39.54366455 32.43562715 42.79963734 34.54003906 46.05615234 C36.17102813 48.57097066 37.81604849 51.07628819 39.4609375 53.58203125 C49.89322863 69.60549511 49.89322863 69.60549511 52.125 78.5 C52.3725 79.469375 52.62 80.43875 52.875 81.4375 C54.10585147 96.51543052 51.33446687 111.1315484 41.93359375 123.34765625 C33.86466997 132.7298321 22.67032897 140.66869004 10.125 142.5 C-8.4626249 143.8494923 -21.62152862 141.02176434 -36.05859375 128.625 C-46.07435917 119.23403658 -51.21978801 107.47855631 -52.11328125 93.87109375 C-52.48298414 74.27684067 -43.9640138 60.84210632 -33.22476196 44.96847534 C-31.23233282 42.0225471 -29.25196183 39.06856058 -27.2734375 36.11328125 C-26.88769058 35.53715591 -26.50194366 34.96103058 -26.10450745 34.3674469 C-23.04136461 29.77869464 -20.0798128 25.13532773 -17.1875 20.4375 C-5.14617959 0.89498776 -5.14617959 0.89498776 0 0 Z " fill="#23BFFD" transform="translate(376.875,240.5)"/>
<path d="M0 0 C4.03840192 0.64614431 5.62593457 2.45917319 8.125 5.5 C10.57695271 8.94592681 12.85212479 12.49667534 15.125 16.0625 C16.46481388 18.14194633 17.80465817 20.22137307 19.14453125 22.30078125 C19.81307129 23.34314941 20.48161133 24.38551758 21.17041016 25.45947266 C23.50001816 29.08337199 25.85379795 32.69100965 28.21118164 36.296875 C30.33057781 39.54366455 32.43562715 42.79963734 34.54003906 46.05615234 C36.17102813 48.57097066 37.81604849 51.07628819 39.4609375 53.58203125 C49.89322863 69.60549511 49.89322863 69.60549511 52.125 78.5 C52.3725 79.469375 52.62 80.43875 52.875 81.4375 C54.10585147 96.51543052 51.33446687 111.1315484 41.93359375 123.34765625 C33.86466997 132.7298321 22.67032897 140.66869004 10.125 142.5 C-8.4626249 143.8494923 -21.62152862 141.02176434 -36.05859375 128.625 C-46.07435917 119.23403658 -51.21978801 107.47855631 -52.11328125 93.87109375 C-52.48298414 74.27684067 -43.9640138 60.84210632 -33.22476196 44.96847534 C-31.23233282 42.0225471 -29.25196183 39.06856058 -27.2734375 36.11328125 C-26.88769058 35.53715591 -26.50194366 34.96103058 -26.10450745 34.3674469 C-23.04136461 29.77869464 -20.0798128 25.13532773 -17.1875 20.4375 C-5.14617959 0.89498776 -5.14617959 0.89498776 0 0 Z M-0.875 22.5 C-2.44240354 24.5167653 -2.44240354 24.5167653 -4.04296875 27.16015625 C-4.68202148 28.17086182 -5.32107422 29.18156738 -5.97949219 30.22290039 C-6.66688477 31.32496826 -7.35427734 32.42703613 -8.0625 33.5625 C-9.13886859 35.27220644 -10.21773563 36.98031637 -11.29696655 38.68821716 C-12.0391127 39.86267917 -12.78049652 41.03762322 -13.52114868 42.21302795 C-17.91210287 49.17023501 -22.44732931 56.03327302 -27.00073242 62.88500977 C-34.74207529 74.64641088 -38.28342331 84.34486232 -36.875 98.5 C-34.42715782 109.00781034 -27.6545476 117.60785953 -18.6875 123.5 C-9.74644841 128.79840095 1.37171892 128.86043177 11.36328125 126.84765625 C22.55899748 123.15797891 29.84370537 115.89469535 35.12109375 105.546875 C38.84705948 97.34618488 39.54548709 88.04773603 36.8125 79.4375 C31.05176058 65.20746298 21.14335724 52.34254654 12.59033203 39.68701172 C11.11273007 37.4816871 9.66042646 35.26157896 8.21484375 33.03515625 C7.7566626 32.33350342 7.29848145 31.63185059 6.82641602 30.90893555 C5.96093706 29.58180409 5.10049888 28.25136764 4.24584961 26.91723633 C3.25723042 25.40964929 2.19778586 23.94890202 1.125 22.5 C0.465 22.5 -0.195 22.5 -0.875 22.5 Z " fill="#020304" transform="translate(376.875,240.5)"/>
<path d="M0 0 C0.99 0.495 0.99 0.495 2 1 C-7.54456655 21.51244566 -24.3549479 35.03771064 -45.16796875 43.25 C-57.8739496 47.72092729 -70.21645796 48.39410106 -83.546875 48.546875 C-84.85909405 48.56284603 -84.85909405 48.56284603 -86.19782257 48.57913971 C-90.8159278 48.63221748 -95.4339314 48.67111131 -100.05224609 48.70019531 C-103.85887485 48.72699508 -107.66338958 48.78295884 -111.46923828 48.86425781 C-116.09227968 48.96294803 -120.71339096 49.01243115 -125.33744049 49.02664948 C-127.09025541 49.04004293 -128.8430296 49.0704082 -130.59523773 49.11843109 C-144.25184307 49.47182428 -144.25184307 49.47182428 -148.59022522 45.81921387 C-150.39192916 43.27654554 -151.72321917 40.83525463 -153 38 C-153.73089844 36.906875 -154.46179688 35.81375 -155.21484375 34.6875 C-155.78332031 33.800625 -156.35179687 32.91375 -156.9375 32 C-157.52402344 31.0925 -158.11054688 30.185 -158.71484375 29.25 C-160 27 -160 27 -160 25 C-156.37754601 24.6825031 -152.75319613 24.42982437 -149.125 24.1875 C-148.11179687 24.09791016 -147.09859375 24.00832031 -146.0546875 23.91601562 C-138.29954539 23.44374736 -133.6396964 25.15074828 -127 29 C-121.6010888 31.33905708 -116.54530717 31.3331092 -110.75 31.3125 C-109.85925781 31.32861328 -108.96851563 31.34472656 -108.05078125 31.36132812 C-99.78172098 31.36732889 -92.90172459 29.47594232 -85.5234375 25.8046875 C-80.46647954 23.47428193 -76.08560942 23.7899226 -70.625 24.125 C-45.35971255 24.87670823 -19.03000041 16.97270307 0 0 Z " fill="#B8ECF9" transform="translate(487,351)"/>
<path d="M0 0 C3.08074603 1.4288528 5.6562904 3.16006639 8.375 5.1875 C28.65132952 19.46702342 52.15147074 24.40559947 76.53515625 24.51171875 C78.03545024 24.52863142 79.53573064 24.54679003 81.03599548 24.56611633 C84.92045837 24.61290965 88.80486626 24.64316991 92.68951416 24.66955566 C96.67918788 24.69972527 100.66867268 24.74612671 104.65820312 24.79101562 C112.43870682 24.87624064 120.21922557 24.94393735 128 25 C127.37791085 26.26121146 126.75381711 27.52143427 126.12890625 28.78125 C125.60792358 29.8340918 125.60792358 29.8340918 125.07641602 30.90820312 C124.09297011 32.81933139 123.03991504 34.65586428 121.9375 36.5 C120.4727096 39.00676211 119.37364112 41.49097846 118.37890625 44.21875 C118.11795166 44.92966797 117.85699707 45.64058594 117.58813477 46.37304688 C117.39405029 46.90994141 117.19996582 47.44683594 117 48 C110.31469227 48.07700653 103.62950173 48.12899426 96.94384766 48.16479492 C94.67655158 48.17974307 92.40928371 48.20010898 90.14208984 48.22631836 C62.10372278 48.54198209 37.31380108 44.1022698 16.16015625 24.29296875 C9.33067174 17.04358826 3.50555004 9.40124784 0 0 Z " fill="#B9EDFA" transform="translate(23,351)"/>
<path d="M0 0 C3.24351518 3.08454218 5.49086297 6.67804734 7.875 10.4375 C8.86030544 11.97680045 9.84599876 13.51585268 10.83203125 15.0546875 C11.34846191 15.86260742 11.86489258 16.67052734 12.39697266 17.50292969 C14.55057887 20.8576486 16.73059597 24.19481331 18.91088867 27.53222656 C21.61877338 31.68071394 24.31228092 35.83842492 27 40 C27.73476563 41.13743652 27.73476563 41.13743652 28.484375 42.29785156 C39.26771861 59.05795224 45.26990071 73.74201031 41.61767578 94.13476562 C39.54846911 101.96509016 35.0763258 108.7932319 30 115 C29.42765625 115.70898438 28.8553125 116.41796875 28.265625 117.1484375 C22.62400857 123.44100967 15.57862527 126.59387628 8 130 C8.98906193 127.4729014 10.00804711 124.98261933 11.1484375 122.51953125 C17.49775543 108.50654613 19.36592233 95.21855069 19.5 79.9375 C19.51844971 78.7201416 19.53689941 77.5027832 19.5559082 76.24853516 C19.43316359 58.03615128 12.95571396 41.14078192 7.25 24.0625 C6.204449 20.91694563 5.16099684 17.77072309 4.12078857 14.62339783 C3.47877135 12.68244412 2.83342708 10.74258702 2.18438721 8.80397034 C1.75328644 7.50507118 1.75328644 7.50507118 1.31347656 6.17993164 C0.93186371 5.03772911 0.93186371 5.03772911 0.5425415 3.87245178 C0 2 0 2 0 0 Z " fill="#27A4F7" transform="translate(300,364)"/>
<path d="M0 0 C2.77922598 2.64230906 4.98824836 5.25999433 7.05859375 8.484375 C7.88520508 9.76441406 7.88520508 9.76441406 8.72851562 11.0703125 C9.29248047 11.95460938 9.85644531 12.83890625 10.4375 13.75 C10.99759766 14.61882812 11.55769531 15.48765625 12.13476562 16.3828125 C13.7649741 18.91657876 15.38379175 21.45728686 17 24 C17.49129395 24.76505859 17.98258789 25.53011719 18.48876953 26.31835938 C18.93720215 27.02283203 19.38563477 27.72730469 19.84765625 28.453125 C20.24090088 29.06833008 20.63414551 29.68353516 21.03930664 30.31738281 C23.9651627 35.44190631 23.50720752 41.29753837 23 47 C21.0674333 54.02010674 16.17668146 58.32801819 10.2109375 62.14453125 C7.13194708 63.33587207 4.41796105 63.30187754 1.125 63.3125 C-0.06867188 63.32925781 -1.26234375 63.34601563 -2.4921875 63.36328125 C-9.90966718 62.59510128 -14.05278418 58.49299653 -18.6875 53 C-22.27818036 47.52848707 -22.81826817 42.41519995 -22 36 C-19.00961575 28.10599242 -13.95730126 21.04997503 -9.3125 14.0625 C-8.63638672 13.03576172 -7.96027344 12.00902344 -7.26367188 10.95117188 C-4.85323199 7.29353922 -2.42984307 3.6447646 0 0 Z " fill="#23BDFB" transform="translate(176,365)"/>
<path d="M0 0 C2.63281781 3.21697202 5.05309624 6.47357942 7.3203125 9.95703125 C8.24009888 11.36710449 8.24009888 11.36710449 9.1784668 12.80566406 C9.82082275 13.79791992 10.46317871 14.79017578 11.125 15.8125 C11.78862549 16.83698242 12.45225098 17.86146484 13.13598633 18.91699219 C14.47102216 20.98153724 15.80446021 23.04711645 17.13623047 25.11376953 C18.76986629 27.64361531 20.41605854 30.16464198 22.06640625 32.68359375 C29.54085985 44.19683712 35.20787997 54.55299156 32.4921875 68.6328125 C30.96004352 74.39156058 28.50749668 79.20079065 25 84 C24.39929688 84.82371094 23.79859375 85.64742188 23.1796875 86.49609375 C20.84047215 89.1832569 18.57474172 90.86160436 15.5625 92.75 C14.17224609 93.63945312 14.17224609 93.63945312 12.75390625 94.546875 C10.09568652 95.94951009 7.95911286 96.5918465 5 97 C7 87 7 87 7.5012207 84.91137695 C12.22273078 64.13375374 8.93822304 42.3661819 4 22 C3.39611209 19.35722911 2.80443714 16.71207135 2.21777344 14.06542969 C1.87633209 12.53428846 1.52731022 11.00480795 1.16894531 9.47753906 C0.40631615 6.18443974 0 3.40829907 0 0 Z " fill="#27A3F6" transform="translate(382,270)"/>
<path d="M0 0 C8.66905052 3.71810293 15.79079499 9.03704944 23 15 C23.95261719 15.78503906 24.90523437 16.57007812 25.88671875 17.37890625 C42.42773559 31.70186947 55.84378273 51.99643518 62 73 C57.21405676 72.44777578 52.4490216 71.797267 47.6875 71.0625 C46.17736328 70.83240234 46.17736328 70.83240234 44.63671875 70.59765625 C42 70 42 70 39 68 C38.21875 65.55078125 38.21875 65.55078125 37.5 62.3125 C32.01220075 42.0658467 19.30691428 16.04900503 1.78125 3.3984375 C1.1934375 2.93695313 0.605625 2.47546875 0 2 C0 1.34 0 0.68 0 0 Z " fill="#F9B82A" transform="translate(230,30)"/>
<path d="M0 0 C17.16 0 34.32 0 52 0 C50.35 2.97 48.7 5.94 47 9 C46.50242188 10.30066406 46.00484375 11.60132813 45.4921875 12.94140625 C42.07435348 20.59438243 42.07435348 20.59438243 38 23 C29.17508792 24.80166471 19.90242334 23.84678637 11 23 C10.68869141 22.01773437 10.68869141 22.01773437 10.37109375 21.015625 C7.68183242 13.04911027 4.42060626 7.57818216 0 0 Z " fill="#B8ECF9" transform="translate(202,376)"/>
</svg>
